<mxfile host="app.diagrams.net" agent="Mozilla/5.0 (X11; Linux x86_64) AppleWebKit/537.36 (KHTML, like Gecko) Chrome/131.0.0.0 Safari/537.36" version="26.0.14">
  <diagram name="Page-1" id="-xZ9NTOYAo87MKR3NMd5">
    <mxGraphModel grid="1" page="1" gridSize="10" guides="1" tooltips="1" connect="1" arrows="1" fold="1" pageScale="1" pageWidth="850" pageHeight="1100" math="0" shadow="0">
      <root>
        <mxCell id="0" />
        <mxCell id="1" parent="0" />
        <mxCell id="-pcDP337HyHmy2B4VzE0-3" value="" style="shape=image;verticalLabelPosition=bottom;labelBackgroundColor=default;verticalAlign=top;aspect=fixed;imageAspect=0;image=https://cdn-icons-png.flaticon.com/512/274/274430.png;" vertex="1" parent="1">
          <mxGeometry x="-1020" y="470" width="72" height="72" as="geometry" />
        </mxCell>
        <mxCell id="-pcDP337HyHmy2B4VzE0-5" value="&lt;b&gt;Via Github&lt;/b&gt;" style="text;strokeColor=none;align=center;fillColor=none;html=1;verticalAlign=middle;whiteSpace=wrap;rounded=0;" vertex="1" parent="1">
          <mxGeometry x="-1023" y="542" width="71" height="30" as="geometry" />
        </mxCell>
        <mxCell id="-pcDP337HyHmy2B4VzE0-8" value="" style="shape=image;verticalLabelPosition=bottom;labelBackgroundColor=default;verticalAlign=top;aspect=fixed;imageAspect=0;image=https://static.thenounproject.com/png/1658209-200.png;" vertex="1" parent="1">
          <mxGeometry x="-930" y="466" width="80" height="80" as="geometry" />
        </mxCell>
        <mxCell id="-pcDP337HyHmy2B4VzE0-9" value="&lt;b&gt;SQL Table&lt;/b&gt;" style="text;strokeColor=none;align=center;fillColor=none;html=1;verticalAlign=middle;whiteSpace=wrap;rounded=0;" vertex="1" parent="1">
          <mxGeometry x="-930" y="542" width="71" height="30" as="geometry" />
        </mxCell>
        <mxCell id="-pcDP337HyHmy2B4VzE0-12" value="" style="swimlane;startSize=0;strokeWidth=3;rounded=0;swimlaneLine=0;glass=0;shadow=1;" vertex="1" parent="1">
          <mxGeometry x="-1040" y="330" width="200" height="330" as="geometry" />
        </mxCell>
        <mxCell id="-pcDP337HyHmy2B4VzE0-15" value="&lt;b&gt;&lt;font style=&quot;font-size: 15px;&quot;&gt;Data Sources&lt;/font&gt;&lt;/b&gt;" style="text;strokeColor=none;align=center;fillColor=none;html=1;verticalAlign=middle;whiteSpace=wrap;rounded=0;" vertex="1" parent="-pcDP337HyHmy2B4VzE0-12">
          <mxGeometry x="46" y="14" width="101" height="30" as="geometry" />
        </mxCell>
        <mxCell id="-pcDP337HyHmy2B4VzE0-16" value="" style="shape=image;verticalLabelPosition=bottom;labelBackgroundColor=default;verticalAlign=top;aspect=fixed;imageAspect=0;image=https://symbols.getvecta.com/stencil_27/36_data-factory.e36cbf28ed.png;" vertex="1" parent="1">
          <mxGeometry x="-587" y="340" width="120" height="120" as="geometry" />
        </mxCell>
        <mxCell id="-pcDP337HyHmy2B4VzE0-20" value="" style="endArrow=classic;html=1;rounded=0;strokeWidth=3;shadow=1;" edge="1" parent="1">
          <mxGeometry width="50" height="50" relative="1" as="geometry">
            <mxPoint x="-830" y="425" as="sourcePoint" />
            <mxPoint x="-590" y="425" as="targetPoint" />
          </mxGeometry>
        </mxCell>
        <mxCell id="-pcDP337HyHmy2B4VzE0-21" value="&lt;b&gt;&lt;font style=&quot;font-size: 15px;&quot;&gt;Data Ingestion&lt;/font&gt;&lt;/b&gt;" style="text;strokeColor=none;align=center;fillColor=none;html=1;verticalAlign=middle;whiteSpace=wrap;rounded=0;glass=0;shadow=1;strokeWidth=2;" vertex="1" parent="1">
          <mxGeometry x="-775" y="390" width="121" height="30" as="geometry" />
        </mxCell>
        <mxCell id="-pcDP337HyHmy2B4VzE0-22" value="" style="endArrow=classic;html=1;rounded=0;strokeWidth=3;shadow=1;" edge="1" parent="1">
          <mxGeometry width="50" height="50" relative="1" as="geometry">
            <mxPoint x="-538" y="511" as="sourcePoint" />
            <mxPoint x="-538" y="614" as="targetPoint" />
          </mxGeometry>
        </mxCell>
        <mxCell id="-pcDP337HyHmy2B4VzE0-24" value="" style="shape=image;verticalLabelPosition=bottom;labelBackgroundColor=default;verticalAlign=top;aspect=fixed;imageAspect=0;image=https://miro.medium.com/v2/resize:fit:600/1*xkem5OSBR4oeQbMptKm6sw.png;" vertex="1" parent="1">
          <mxGeometry x="-76.5" y="644" width="213" height="111.83" as="geometry" />
        </mxCell>
        <mxCell id="-pcDP337HyHmy2B4VzE0-25" value="" style="shape=image;verticalLabelPosition=bottom;labelBackgroundColor=default;verticalAlign=top;aspect=fixed;imageAspect=0;image=https://cdn.prod.website-files.com/601064f495f4b4967f921aa9/64246984585c9225aa4e4fc4_databricks.png;" vertex="1" parent="1">
          <mxGeometry x="-301.5" y="640" width="122" height="122" as="geometry" />
        </mxCell>
        <mxCell id="-pcDP337HyHmy2B4VzE0-29" value="" style="shape=image;verticalLabelPosition=bottom;labelBackgroundColor=default;verticalAlign=top;aspect=fixed;imageAspect=0;image=data:image/png,iVBORw0KGgoAAAANSUhEUgAAAlgAAAE7CAYAAAAB7v+1AAAgAElEQVR4nO3dfYyV53nn8d/1nBkPw9geE8cdzwwEE5e4k5cCblTbTVqHbrUOK8XDkGVddldKnH9cuovgJPEeiKKdzG5UPPWmB8tSsVWp2WilEosNY5w2ttVViZu0xJLLS52YOoRgAsx46saYOjDAzHmu/WPAwTYv8/Kccz/nPt+P5H94Oedycix+3M/v3JcJAPKu9EK7rLkk1w06kwzokY+Mhh4JAK7EQg8AAFdU2veATP2SdZ7/kROSD+pU2xY9uvhs0NkA4DIIWADy6cE9d6tQKEtadsmfdx2W0qIGl+2s7WAAcHUELAD58oU9C9XcVJa8b0q/3rVLqhQ1ePv+Kk8GAFNGwAKQD2/1rHyDzFqn/ftdW+lnAcgLAhaA8N7ds5op+lkAcoGABSCcq/WsZsp1QPKiBpc+m+nrAsAUEbAA1N50e1Yz5XpazSrqq0terur7AMA7ELAA1M5se1YzZmX5uQENfvRk7d4TQCMjYAGojex6VjN1Qp4OaHDZI4HeH0ADIWABqK5q9axmin4WgBogYAGojlr1rGaKfhaAKiJgAchWsJ7VjG2Wjw/SzwKQJQIWgOyE71nNkI/INaDBpY+HngRAHAhYAGYvbz2rmdurSqWoh29/LvQgAOobAQvAzOW9ZzVjNqTxiaK+dvuR0JMAqE8ELADTV389q+lzH5PZFvpZAGaCgAVgeuq2ZzVT9LMATB8BC8DUxNOzmqndmlBR/2vJ86EHAZB/BCwAVxZtz2rGtmksKeqRj4yGHgRAfhGwAFxaI/SsZsp9TG6DGpv7kB5dfDb0OADyh4AF4N0armc1Uz6iiop6eOkToScBkC8ELAC/RM9qpuhnAXgbAhYAelbZoZ8FQBIBC2hs9Kyy5z4m04BOtW2hnwU0LgIW0KjoWVWX67CUFjW4bGfoUQDUHgELaDT0rGrLtUuqFDV4+/7QowCoHQIW0CjoWYXl2qozyQD9LKAxELCA2NGzypMTkg/SzwLiR8ACYhZTz8q1S2ZvRHECRz8LiB4BC4hRVD2rd1zmWdp3j2RlmXoCDzZ7rl1q1lp9dcnLoUcBkC0CFhCTmHpWV1tHU9q7Xpb0S5pX++GyZmX5uQENfvRk6EkAZIOABcQgvp7V1C7sLL3QLjVvlmltjeaqphPydECDyx4JPQiA2SNgAfUupp6VtFeVSlEP3/7ctH5Xac8SqVCWaXmV5qod1wHJixpc+mzoUQDMHAELqFex9axcAxpc+visXqa0t1dmW6MIm66n1awi/SygPhGwgHoTU89q0mb5+GBm/aN1B1vUenqjzEtxPC6lnwXUIwIWUC9i61lV+4Rm/Ysdak3LktZU5fVr64TcN836hA9AzRCwgHoQU8+q1h2jL+6/Q03aqigepc6wowag5ghYQJ5F1bMK/C25mEKqbEjjE0V97fYjoScBcGkELCCPYutZ5WUP34XHrNKmoHNkoPO915z5yL9d8GOb0/SlZz8w569CzwPg7QhYQJ7E17PaJVWKGrx9f+hR3ubL+2/TuMoyrQg9ynRd25xoySc69N7bbpQliSTp7Jtn97Ve17JyR5dxogXkBAELyIuoHmH5iNzX5n7XXp2t3VmydJ4W/ObNaprT/K6f8zRNz715dtu117T+l+23Gt84BAIjYAGhxdSzutp6mzxad7BFbac2SFZSTtfu/Ootbbr1451qfc/cq/7ayrmJM5Vz+u/f+UDzwzUYDcBlELCAUGLrWU11vU1erX+xQ3PS/jyt3em4oVkfXN6l9gXt0/69lTPnRqyQfOaphc1/XYXRAFwFAQuotdh6VtJeTWit/teS50MPkonSniWywlZJd4Ua4drmRB+66yb9yoduVKG5aVavde7Nc3/ffsM1q7Z1WH0GX6BOEbCAWnpw330qqBxPzyqD9TZ5Fej/qw995Abd8ps3q7ntmsxe09M0PfuL8T9fXGj5r48utvp4dAvUOQIWUAuTl12WFfBUJDPuYzLbkul6m7yq4dqdWxbM1eKPd6rtpraqvUfl3MRYZaxS/E7PnDhDMZAjBCygmuJa19K4C4ir2Jdrn1vQR37nZr33Azdm/dKXde70uaOWJP/pr97f/L2avSnQYAhYQDXEtnC41utt8irjb3x+9GM3qfPXb5p1z2qm6GcB1UPAArIWVc8q8HqbvCrtXS9L+jXDax0+2HO9Ft7ZqZbrWjIebPo8TSvnfjH+Z79aaNlAPwvIDgELyEpMPSspP+tt8qr0Qrvsmn7Ji1P9LZ03XaOeu7t0fdf11ZxsRtJzldMTYxOfp58FZIOABcxWfD2rfK63yasprN1pn1vQhz/2K29bb5NX42PnfiZL/jP9LGB2CFjATMXXszospcXcr7fJq9LeXikpy7To4h/+jTveq84lN11yvU2enTt99nvt17Wspp8FzAwBC5iJmHpW9bjeJq8uWrvzq7e0zZvqepu8op8FzBwBC5iO2HpW9b7eJofWjHrHqbOVrUlTIZYVSDo1+uaP/vqbP/5Y9PeeARkiYAFTEVvPStqtCRWjWW+TA+sOesuRudqYmJekCB4ZSzpzckw/3f2qfvzjNyW+UQpMCwELuJLYelaxr7cJ5FPHvbdgvjWKR8aSJs6Ma2T/a/qH5//l3T/JnWjAlBCwgMuJrWfVKOttaqjvmC9R4mWXLQ89S1ZeO/Cafvh3/6yTpytX/oWNeqs/MEUELOCdYutZuZ7WRGWtvnb7kdCjxGLNqHecTdP+1JO1oWfJyi9efVM//t6IfjZyZpq/08rycwMEd+DtCFjABbH1rHiUUxX3Dvv6RN4v2Yxucc+bs2+e1ZEfjOilA/86m5ehnwW8AwELiK5nxR921fDpYb+nIi9L1hN6lixUxif0zz/6uZ7/2wy/QEqoB95CwEJji6lnJU2ut9H4Jh7XZGf1cb9t3L2sxC57U3u9ef2nr+vl749q9I3xKr2DDWl8oshjaTQyAhYaU3w9K9bbZGz1IW+vtKalVMmm0LNk5dRrp3Tw+yN65ejp6r8ZX6xAgyNgobHE17NivU0V9B7zByzx/lhONifOjOvw7hH96MU3Arw7V4OgMRGw0Bhi61mx3qYq+kb8bncvS7Ys9CxZ8DTV6I9+rh9+f1S/GE9Dj7NXlUpRD9/+XOhBgFogYCF+sfWsWG+TuTWj3jFWSctSEsfJpqSTR0/qpV3DVexZzRT9LDQGAhbiFVvPivU2mYtxvc3Y66d16Psj+skrp0KPcnn0s9AACFiIT2w9K/mIUt+kP172jdCTxGTVcb8vNY/mZPOK621yy0dUUVEPL30i9CRA1ghYiEeMPSv+lp+5vmO+xAu+VW5RnGx6mupfXv751Nbb5Bens4gOAQtxiK5nRU8lazGut5kYn/h/+3cebjo6PPaJ0LNkhH4hokHAQn2LrWfFTdiZW3fQW342VxtssmcVxXobyQ8UZMVvddnk56S07x7JyjLV/y3zfEMWkSBgoT5F17NivU01fHrY76m4b5XZotCzZMNPpLKBp7rs3Z+TdQdb1HZqg2QlSREESfpZqG8ELNSX2HpWkiQry88N0LPKTozrbUxpuWksGdh+q135c7L+xQ7NSftliuVRKP0s1CUCFupHbD0r1ttkbvUhb59oTftdSTH0LFkx+S6lVhyab9P7nMT3+HyrziQD9LNQLwhYyL/4/qBgvU0VnF9vszmanpX74Yqs+O1um93nJK6/mJyQfFCn2rbQz0LeEbCQX7H1rNzHZBrgD4dsxbbeRvIT7jb4vtPa8uhiy+ZzEtujdf6SgjpAwEL+xPaHwSS+fp6xVcO+0OVll/WFniU76bbWQlLc1mHV+Zx8Yc9CNTeVJY/jfzMesyPHCFjIl7geZ0gUdDO37qC3HG9L+1PZhljW28h8t09YcecCq83n5ME9d6tQKEuK49SPfhZyiICFfPjy/ts0oa8rlp4V622qIrb1NpKPJG7FHd0W5iqC0t71sqRfUVzrQD8L+ZKEHgCQJJ1L71QM4cp9TNJm+UQP4So7vUf9jpUj6d+npm/GEa58LFG6ecEpWxQsXEnS4LJH5OOLJCsHmyE78yR7SK2nN4YeBJCkptADAPGwIU1UWG+ToTWj3jFWOf9FB4/jwN3kQyYr7uhK8vE5mbx/7fP68v7HNa6tMi0PPRIQAwIWMFuuA0ora/Xw7c+FHiUWF9bbjFW8JCUxPL6S5HvNrDjUmeTzc/LVJS9L+l2V9vZKSVmmSG6/B8LgESEwcyfk6QYNLvkg4So7nzruvUfn+gEzPRTHnVZ+wlP9wZNdye1DnZb/z8ngsp06PbdH8o2SToQeB6hXBCxgRqwsH1/E7sDsrD7ut/UNp39TMD0Zy+5AU1puHrNFO+fb46FnmZZHF5/VQ0sHNZb0SNoWehygHvGIEJgO1y41a62++usvhx4lFhfW24xLxWi+2Jz6081mxe3dhfr+nExee/Af9cX9j0S1TQGoAQIWMBXcHF0V9w77+nF5fzQ9K/fDBbO135qfPBt6lExN3uP2W/pvez+jxDbH8U1OoLp4RAhc2QnJN+r03B7CVXY+Pez3rBxOX0qkLdH0rFwbF5y2nm91WVzh6mJ/vOwb8okeSZvPX0kC4DI4wQIuj/U2Gbuw3qYi9cXyODCxdGtLkgxUbb1N3kxe6/AlfWHP42oqbJVpReiRgDwiYAHvxnqbjK0+5O2V1rSUyqNab2MVW7tjfqEx9+BN3vf271Tad49kZZl6Qo8E5AkBC3iLj6iioh5eGu5m7Qj1HvMHxhPvl5JIejvn19t0JXxOJGlw6bOSPhjZ2h1g1uhgARevtyFcZebCehtL9FgcpWgfS11fCb7eJq8urN1xbQ09CpAHnGChwbHeJmsxrreR0m2thaTYMD2rmZrsZ/2hSnselwpl1u6gkRGw0JhYb5O5dQe95chcbTy/3iaOntVb620KfE6mY/D2/bqwdsdsaxwnmMD0ELDQaE7I04F6v4F99XG/7azpk3LdUDBfIukGl26W7B1FYx8z6QeSZOb/pDR5rqVJ3836JOZTx733qLycmC2K49uBPuKpDeycn9TXDex5M7hsp9YdfEatpzfKvCSL5AsOwBQQsNBYfHzR+ccYdaf3qN+RFNL7XPbJcaknkSST/IqBxlpdk49p3G25TGvHKtLK4fRAYv5dpclzs+kT9R3zJUq8PPkeUQSrsUS+pTCWDG6/1eryc5I7jy4+K2lA6198TK3pAVGCR4MgYKGx1Fm4WjXsC93Sfnf7pKROz+x7KdaTuvXItHbl8XSzyx6f26T/PdWTrTWj3nE2TftT19o4gpUuWm+T1Pd6m7x65COjKu1/Q0bAQmMgYAE59LYA41X+sq/ZIpMeGqvooZXDlW3Nngxs77bLhox7h339WCWi9TbyAwVZMbr1NgCCImABOXLhQs6xim8IUxRP1oybr+w97gPvO60tjy62sxd+5tPDfk9FXpbUE8eplZ9IZQNPdSV13ccDkE8ELCAn7j3mnxlPvBz+ZMhazfTQ0Tb/TO9Rv/+aRG+Mu5cr0oo4glUDrrcBUHMELCAHVg1X/iiVNuUrwFiPFfSDcUmyPM01cybfpdSKDbveBkDNELCAgNYd9JZjbb4tlfWFniVq7ocrsuK3u5OdoUcB0BhYlQMEsmbUO462+W4nXFXR+fU2p63n291GuAJQM5xgAQGsGvaFYxXfzQ3X1cR6GwDhELCAGlt9yNvH5U8TrqrEfLdPWHHngsLzoUcB0LgIWECNjbf4tnevtMHs+Uia2qan5iffCD0JANDBAmqob7jyJ0psReg54uJjidLNzWPW89R8I1wByAVOsIAa6T3mD7hUDD1HTEw+ZLLijq7kSOhZAOBiBCygBvqO+RJP9FjoOeLhB8xs7VBn8lzoSQDgUghYQC0k3p+vS0TrFettANQHOlhAlfUd8yXcdTV7prTcPGaLnuoywhWA3OMEC6gyl2/m9GrmTL6ryW3t9u7Cy6FnAYCpImABVfSp494rE98anAnW2wCoYzwiBKqoYN4feob64yfctZH1NgDqGSdYQJWsGvaFqbQs9Bz1xCz9+pwk2cR6GwD1joAFVEnF9ftG9Wpqzq+3eZL1NgAiQcACqiQxv8cpt1+FjyRuxR1dyROhJwGALNHBAqpg9SFvd9ny0HPkl4+lrq8sOGWLdnQb4QpAdDjBAqrgbItW8reXS7uw3ubJbmO9DYBoEbCAKkiS9B4OiN/J95pZkfU2ABoBAQuoClsaeoL88BFPbWDn/OTx0JMAQK0QsIDquDn0APlhnZbosb7h9D7J91XSZL+5/mnnAuMbgwCiRcACMrbuoLccleaFniNvJkv/tjw5/+R05bBL5rsT+b4JT14upPru0HzbH3ZKAMgGAQvI2PE2Tq+mzO2uVHZXIskTaeVwOmLmz1iaPFs4o2e232onQ48IADNBwAIy5qZb5KGnqFfW6W73u+n+tFVaOZLuTt2eaHE9s73bWPYMoG4QsICMVSq6JeELhNlwuyuR7ho3aeXx9HCS+DOVieQb9LcA5B1/DACoD2aLUk/WWkE/WDmcvtR7zB9YfcjbQ48FAJdCwAIy5qY3Qs8QP+uxRI+Nt/pI30jlz3uP+h2hJwKAixGwgIw1uV4JPUPjsFb35H5OtQDkDQELyNicZr0aeobGdNGp1nDlTwhaAEIiYAEZ29Zho6FnaGzW6kqK461++N7j3k/QAhACAQuoBvfDoUeAzUtMXxlv9cP3Dvv6dQe9JfREABoHAQuohoTHhPlh8xJpy9G2yaAVehoAjYGABVRBmtqzoWfAO1lnIm1ZeTz96arjfl/oaQDEjYAFVIGleib0DLgMs0Wp6Zsrj6XfWTPqHaHHARAnAhZQBZM3jftI6DlwBYmtGKv4gd7jXgo9CoD4ELCAKjFzTrFyz+aZ6aGVI+nfrz7ut4WeBkA8CFhAlSSePBF6BkyR213j5ns5zQKQFQIWUCVdp/RdycdCz4GpslYzPbRyON3D6h0As0XAAqrk0cV21uSPhZ4D02XLrOC7eo/5A6EnAVC/CFhAFc0pJIOSnwg9B6bLWi3RY6tGKn/KBaUAZoKABVTRtg4bTWUDoefAzKSerD3a5rtXDfvC0LMAqC8ELKDKFp7SY1zZUM9sWSrf2zfid4eeBED9IGABVfboYjubygZDz4HZsHnu+i6rdgBMFQELqIHzp1h7Q8+B2UmkLSuHK39BLwvA1RCwgBp4dLGdbS3YCrkfDj0LZitZc7TNd68+5O2hJwGQXwQsoEa2ddioufXFcTeWj6WpPmumT6TShtT1FbP06ybf1RgndbZsvNV3EbIAXE5T6AGARjI03/Z/6rivKZieDD3LzPlYQdb35Hx79vwPPHepX7X6kLenrbpz3HVnwfxul+6UrLWGg1bZZMhaM+ortnXYaOhpAOQLAQuosW93287e477RTA+FnmX6JsPVt7reCleXtf1WOynp2fP/SJL6jvmSVLozKaR3eGqfkNmiak5bfbZsbMJ3rxr25Tu67EjoaQDkB48IgQB2dttg6vpK6DmmZ+rh6nKG5tv+nfPt8aHOwuee7E7eb6mWmtJyXXfTzBal7ru4KwvAxQhYQCBPddtA4vr9+uhkzT5cXcrQfNs/1FX4fN2HrfMhq++YLwk9CoB8IGABAe3otie8YsvzfRGpj5jZiqzD1Tu9K2xZ+vVqvl/mzBZ5QsgCMImABQS2c4E9n8juyuO37xKlmxecskVDnXbJInu1DM23/UOdhc+1FnRzonRz/exztHme+NM8LgRAwAJyYEeXHWkes+WTvaw8hAk/4BXduaOr8KVHF9vZUFNs67DRHV2FLy04ZZ2ptKE+Hh9aZyof4goHoLERsICc2H6rnXyq2wZaC9ZjSsuhulnnT62W7Vxgz4d4/0t5dLGdfarLHnmyO3n/+d7agdAzXZktG2/xbaGnABAOAQvImW0dNjrUVfh8IuupXQ/Jx8zSr1uqpaFPra5mR7c98WRX8kF3bczHad9lJLZi1UjlT0OPASAMAhaQUzu67MhQZ+FziXSLp/oDpf509u/iB9y1sbVgi4Y6C58bmm/7s3+P6tjZbYOtBetJLN0aepbLST1Zy4JooDFx0SiQc+cvsHxc0uOrD3l7ZY4+mVraK9knJZs3vVfzE0r1gzSxZ5ukJ3d0JXV9Oeb5G9T/sPeof8OavCy3u0LP9E6JtOVTx/2Vb3fbztCzAKgdAhZQR87fjv7E+X8kTd6OroJusFQ3T0i/9q7fZHqjYNrXdFr7tt+anKzhuDVzvi/2W/ce888kiZenHzyrq2C+re+Y33XxCeGaUe84k779/y9zvcKN8EAcCFhAnaunx3rV9tR8+8aqYf9uar4tX6dZ1uqJ7+obTvdd2Mk4Vnn3r3JJK4ddko+Z9ANPdeaXp40EL6Ce0MECEJUdXXbkyc7ktybvz8oTm+ey5VNbeG2tLluuxFYk0pZUemXlcPrSquHKH3GRKVAfCFgAorSjq/Alr+jOfN+SPx3WkyrZ5In2rRxOh+8d9vXrDnpL6KkAXBoBC0C0di6w55vHrMfkQ6FnyZZ1JtKWo3P9wKrjfl/oaQC8GwELQNS232onh7qSVZP3ZkXGbFFq+ubK4XRP34jfHXocAL9EwALQEHZ222Ca6rOh56gOW+au764crvwFjw2BfCBgAWgYT823b1RcK0OtIaq+ZM3RNt/NsmkgPAIWgIby7W7baWYrcr1mZ1ZsWSrf3XvU7wg9CdDICFgAGs5Qpz1nqS2POGR1WsF39R7zB0JPAjQqAhaAhjQ03/YnsmVyPxx6luqwVkv0GLsQgTAIWAAa1o4uO2JuffGeZE3uQuQbhkDtEbAANLSh+bbfzPriLb5L7j5E8R2oLQIWgIY31GnPJW73h56jemxeKn969SFvDz0J0CgIWAAgaUe3PRHlZaRvsZ6JVv966CmARkHAAoDzdnbboCkth56jWlzWd+8x/0zoOYBGQMACgIsMdRU+L/mB0HNUS5L4Zm57B6qPgAUAF+k75ksk6wk9R/VY55E2/UHoKYDYEbAA4GKJ94ceodoS+eY1o94Reg4gZgQsADiv75gvcVlf6Dmqz1rPVNJS6CmAmBGwAOA8TxondLjsDzjFAqqHgAUAkiaL37Yy9By1Y62nx9VA/75AbRGwAEDSkVb9vmStoeeoJZP3hp4BiBUBCwAkJfL7Qs9Qc4k+we3uQHUQsAA0vNWHvF2JrQg9R+1Za2WOPhl6CiBGBCwADW9irpaGniEUT9J7Qs8AxIiABaDhpanuDD1DKO6NVOwHaoeABaDhJeZ3hJ4hHJtHDwvIHgELQMNz6ddCzxDUHN0cegQgNgQsAFBjB4yJpLH//YFqIGABgGxe6AlCqlR0S+gZgNgQsAA0NNbFSGacYAFZI2ABaGhnK5oTeobQCkm6MPQMQGwIWADQ4Nx1JvQMQGwIWAAaWkuBcJF6Mhp6BiA2BCwADW1bhzV8uHDXq6FnAGJDwALQ0D497A2/KqZQ0CuhZwBi0xR6AAAIYfVxv23cvVyRGnDJ89uZE7CArBGwADSU1Ye8faI17R+XijILPU4udJ/iESGQNQIWgIbRe8wfGE98s5Q09MWib+cjjy5OzoaeAogNAQtA9PpG/G53L0taJnFqdTEzfyb0DECMCFgAorVq2Be6vOyuPoLVpU2kyc7QMwAxImABiM66g95yZK42pvKSZK2h58kvH7vltHGCBVQBAQtAVFYd9/uOmpcTWSenVldm0jOPLjb6V0AVELAARKH3qN9hTV5OXXcRrKamkhqPB4EqIWABqGtrRr3jTJpudtf9coLV1PlYWzOPB4FqIWABqEvrDnrLz+Zqw1jFS1y7MH0mf2xbBzsIgWohYAGoO5867r1H5WUzW8TjwJnwkTmFZDD0FEDMCFgA6saF9TYyrSBYzVwqG2TJNVBdBCwAucd6myz5yMJT9ljoKYDYEbAA5Nq9w75+XN5PzyobiVuRqxmA6iNgAcgl1ttkz+RDO7qTJ0LPATQCAhaAXGG9TbX43vmnbE3oKYBGQcACkAurD3l7pTUtpfINrLfJmp9IZH08GgRqh4AFILhVx/2+cfOylHSGniU+PmZmfTs67UjoSYBGQsACEAzrbaovTW3tU/PtudBzAI2GgAWg5taMesdYJS1LWsN6m2rxscTt/ifnG6V2IAACFoCaYb1NrfiIpbZix3zbH3oSoFERsADUBOttasX3thZsxbYubmoHQkpCDwAgbquP+219w+nfFExPymxR6Hlmz0+k0oaC9EnJR0JP83bptgWn7C7W4ADhcYIFoCrett4mkhMrU1puGksGtt9qJyVp3UFfdLwt7U+VbAo7mO822aahzgJldiAnCFgAMhfbehuT71JqxaH5hbd1ms7fK/WlvmP+hBIvu2x5bSfzAxW3Td/uSnbW9n0BXA0BC0BmPj3s91TkZUk9UZxauR+uyIrf7r5ygBmaLJP/7urjflslSdenbp+t7mWpfiBNbfCp+ck3qvceAGaDgAVg1i6st6kolvU2PuZuA+87bVumc/v59m57WdIfrj7km8616PeTxO/L7FTLfHfq9kSL65nt3cnLmbxmraw72KK2UxvkfnMcnw/g6ghYaCyl/S9JXtTg0mdDjxKDONfbpNtaC0lxNkXx8x2tx8//o74Rv7uS6hNJ4vfI7a6rv4IfMOlVl7+apsmzbc16ZltHUp/F9dK+e6TTZcl6yFZoJAQsNBZTj2TPqLT/aTWrqK8uqa+TgBy595h/ZjzxzdGstzHf7RNW3Lmg8HzWLz3Uac9Jek7SwIUfW3fQW45dqzsv8evi8OX9t2lcZZlWhB4FCIGAhcZkWqEJrdDGfyzLzw1o8KMnQ49ULy6st1E06218JE1tU637TOcfPcYTqC4ovdAuu6ZfE16M4uMBzBD3YKHBeVHWfFilvetDT5J3a0a9Y+Vw5S+soB9M7TFX3vlYonRz85j1PDXfKItnobTvAVnzYcmLoUcBQuMEC5DmyfJ6AuYAAAvkSURBVJItKu1/gH7Wu1203qZfSqLoWZl8yGTFHV3JkdCzROHBPXerUChLWhZ6FCAvCFjABfSz3iW+9TZ+oCArfqsrIURn4Qt7Fqq5qSx5X+hRgLwhYAHvRD9Lfcd8yeTFmVoeSbA6kcoGnupKHgk9SRTWHWxR2+l+uW+QPIpTTSBrdLCAy2q8ftbqQ96+aqTyp55oX+1vJa8OU1puHrNFT3UZ4SoLD+67T22nDkvaJIvlag4ge5xgAVfWMP2st9bbeNzrbTBDX9x/h5pUlhTBFxyA6iNgAVMRcT+rUdfbYIrWv9ih1rQsaU3oUYB6QsACpiOiftaqYV+Ypr61Iq2IIljNcL0NLuPCehulJUlRnGoCtUQHC5iR+u1nrT7k7auGK3+Uyg8osUhu2U63tRZs0c5uGyRcZaC0t1dzTx+Q7CERroAZ4QQLmLm662f1HvMHxhPvZ70NLqm0Z4lUKMsUxRccgJAIWMBs1UE/i/U2uKIL6224gR3IDI8IkQ9mr4YeYdYm+1n/pI3/+CcqvdAeehyJ9TaYgtLe9ay3AbIXw19lEYsv779N49oayeOJE/J0QIPLgty9tO6gtxyZq42JeUmK5K6i1J9OElu7o8tYb5OF0r57JCtPnsBGJE0/qz9eRvhGcAQs5E9pb6+UlGVaFHqUWXMdqHU/61PHvbdgvlWyOHpWb623sdx33OrCF/YsVFNhq0yRfMHhPNcuqVLU4O3ce4ZcIGAhn976irjF8RVxV9X7Wb9cbxPHDey/XG/DDeyZKL3QLmsuyX1DVDewuw5LaVGDy7j3DLlCwEK+rX+xQ3N8s8zvDz1KNizz+7PWjHrH2TTtTz1Zm9VrhpZYurVwOtm0/Var23vGcqW07wGZ+uM51ZQknZB8UKfatujRxVzNgdwhYKE+xLWmI7N+1r3Dvj6R90tW/6d8uni9jfGYJwuT/91slbQs9CiZcm3VmWRAj3xkNPQowOUQsFBfHtx3nwoqR/E38Vn0s3653sbiKCi/td7GeMyThVjX29CzQh0hYKH+rDvYorbT/dF0SabRz1p93G8bdy/HcwO7j6VugwtP6yFuYM/AuoMtaj29UealKP7buICeFeoQAQv16wt7Fqq5qSx5X+hRsnH5ftbqQ95eaU1LqWxDNNcuKN3WWkiK2zqMxzxZiOl095foWaFuEbBQ/x7cc7cKhbLi6Jm8q5/Ve8wfsMTjKSi/td7GWG+ThVjX29CzQp0jYCEepX0PyGyz4rjW4cDHVnR9/aYP3LhGshiCoyQf8dQGds63x0NPEoX1L3ZoTtovUzTfHpVEzwrRIGAhLhHsVOu4oVkfXN6l9gW52LaTAR9L5FsKY8kg1y5kILY74i6gZ4XIELAQp8m1O+V6uq362uZEH/54hzo+dKMsiWRNKOttshXneht6VogSAQtxm/wDaWve1+4sWTpPC37zZjXNaQ49SkZYb5OpOvwLw5TQs0LECFiIX44fqdyyYK4Wf7xTbTe1hR4lI6y3yVQEj7wviZ4VGgABC40jR6XgjhuaddvHO/Se978n9CiZYb1NxmL60sYF9KzQQAhYaDylPUtkha0KtHbnjt/p0K986EYVmptCvH3mWG+TsbiuHbmAnhUaDgELjavGFzN+sOd6LbyzUy3XtdTi7aqP9TbZiu7i3PPoWaFBEbDQ2GqwWuR9nXP0gd/u1LU3X1eNlw+A9TaZine9DT0rNDQCFiCdX47rW7M8PWifW9BHfudmvfcDN2b1kjnAeptMxbjehp4VIImABbxdRv2X37jjvepcclM81y6w3iZbX9x/h5pUVqAeYJXQswIuQsACLqW07wGZpr3/7wMfuE7vv+tmzWmP5UkP620ytf7FDs3xzTK/P/QomaJnBbwLAQu4nNIL7bLmkqRNV/ulHTc060O/163ru66vwWC1wHqbTOX4LrZZoWcFXBYBC7iaK9yiHet6m2az4vZuezn0KFEo7e2VknLetwlMCz0r4KoIWMBUvWMPHOttcEWTwXyrTMtDj5IhelbAFBGwgGnqevil0gd/b8H/vLbj2iiSlafpaU+SL7HeJiPxrrehZwVMAwELmIFP7Hr9w803NH2zreO6D4WeZTZe/+nrevn7oxp9Y3yvKpWiHr79udAz1bXS3vWypF/0rICGR8ACZuFjf/PP/+G6m699bM4NrXX1B+qp107p4PdH9MrR0+/4GRvS+ERRX7v9SJDB6tU7Hh9HgZ4VMCsELCADv/23r//R9V1tDzbPvSbXCwYnzozr8O4R/ejFNy7/i9zHZLZFPj6owY/yDcIriXO9DT0rIAMELCAjK77z8+vH5hW+dV1X278pNDfl6r8tT1ON/ujn+uH3R/WL8XSqv2tErgENLuUOrHe6cIWH+4bI1tvQswIykqs/BIAYfGLX6x9ufs81f9l2U9vC0LNI0smjJ/XSrmGNvjE+05egn3WxGV5Cm2v0rIDMEbCAKvn43/z8c9d2zt0yp31OkC3PZ06O6SfPDesnr5zK6BUbvJ8V43obelZA1RCwgCr77V2v/dkNC9vvL8xpLtTi/SbOjGtk/2v6h+f/JfsXb8R+1voXO9SaliWtCT1KhuhZAVVGwAJq4Ld2/ORXrum66f+2z7/245YkVfnvztNU//Lyz/XDv/tnnTxdqcZbXPxu8fez1h1sUevpjTIv0bMCMF0ELKCGPvZXwx+du+D6v2x7b1tHlq/7i1ff1I+/N6KfjZzJ8mWnIs5+Vmlvr8y20rMCMFMELCCAj333tQev77z2f7RcN2fObF7n7JtndeQHI3rpwL9mNdoMRdLPKu1ZIhXKUa23oWcFBEHAAgK6+3s/f+K67uv+fdOc5mltiq6MT2jkH1/TC3/3WrVGm7567metf7FDc9J+mdaGHiVD9KyAgAhYQGAf++vX39fSXth+Xde1v2nJ1XPWRettajDdTNRZP2vjvpJkJcW13oaeFRAYAQvIiY9+Z2TFexZc/3/m3jj3xkv9/OXX2+RWvvtZca63oWcF5AQBC8iZj+967SvXz79u0zVtLddIU1xvk2s562d9ef9tGldZphWhR8kMPSsgdwhYQB6tO9jyO2tu3H7uFxOf/OH3Rpunvt4mp/LQzyq90C67pl/yYpD3rw56VkBOEbCAPIvukstA/aw419vQswJyjIAF1IP41rTUpp/14J67VSiUJS2r6vvUEj0roC4QsIB68uC++1RQOZ6TmCr1s76wZ6Gam8qS92X6uiHRswLqCgELqDelF9plzSW5b4hihUuW/aw419vQswLqEAELqFfRndLMsp8V3eme6FkBdYyABdS7B/fcraSwNaL7nKbXz4qvn0bPCogAAQuIRWnvelnSr2huJL9KP2v9ix2a45tlfn+NB6seelZANAhYQExiu+vpUv2sdQdb1HZqQ2TrbehZAZEhYAExiu628vP9LPmrUlKWaVHoiTJDzwqIEgELiFlpb290gSQW9KyAqBGwgNjF+UitftGzAhoCAQtoFOtf7NCctF+mtaFHaVD0rIAGQsACGk2M1xrkHT0roOEQsIBGFePFnHlDzwpoWAQsoJHFuVomPHpWQMMjYAGIcO1OMPSsAEgiYAG42IN77lahUJa0LPQodYeeFYCLELAAvFtp3wMy9dPPmgJ6VgAugYAF4NJiW7uTNXpWAK6AgAXgyqJbuzNr9KwAXBUBC8DUlPbdI1lZpp7QowRDzwrAFBGwAExdo67doWcFYJoIWACmr1HW7tCzAjBDBCwAM1fas0QqlGVaHnqUjNGzAjArBCwAsxfT2h16VgAyQMACkI16X7tDzwpAhghYALK1/sUOtaZlSWtCjzIl9KwAVAEBC0B15H/tDj0rAFVDwAJQXXlcu0PPCkCVEbAAVF/phXZZc0nuG4L2s+hZAagRAhaA2gm1doeeFYAaI2ABqL3ard2hZwUgCAIWgHBKe9fLkn5VY+0OPSsAARGwAISV9dodelYAcoCABSAfZrt2h54VgBwhYAHIl9LeXikpy7Roir+DnhWA3CFgAcifqa7doWcFIKcIWADy63Jrd+hZAcg5AhaA/Pvi/jvUpLJcN9OzAlAP/j8H8r3FP1vA1AAAAABJRU5ErkJggg==;" vertex="1" parent="1">
          <mxGeometry x="-76.5" y="351.77" width="206.5" height="108.41" as="geometry" />
        </mxCell>
        <mxCell id="-pcDP337HyHmy2B4VzE0-31" value="" style="shape=image;verticalLabelPosition=bottom;labelBackgroundColor=default;verticalAlign=top;aspect=fixed;imageAspect=0;image=https://www.jeveuxetredatascientist.fr/wp-content/uploads/2023/09/Power-BI-Logo-2013.png;" vertex="1" parent="1">
          <mxGeometry x="240" y="340" width="170" height="95.63" as="geometry" />
        </mxCell>
        <mxCell id="-pcDP337HyHmy2B4VzE0-32" value="&lt;span style=&quot;font-size: 15px;&quot;&gt;&lt;b&gt;&lt;font style=&quot;color: rgb(79, 79, 79);&quot;&gt;Azure Data Factory&lt;/font&gt;&lt;/b&gt;&lt;/span&gt;" style="text;strokeColor=default;align=center;fillColor=none;html=1;verticalAlign=middle;whiteSpace=wrap;rounded=1;glass=0;shadow=1;strokeWidth=2;" vertex="1" parent="1">
          <mxGeometry x="-591" y="463" width="121" height="37" as="geometry" />
        </mxCell>
        <mxCell id="-pcDP337HyHmy2B4VzE0-34" value="&lt;span style=&quot;font-size: 15px;&quot;&gt;&lt;b&gt;&lt;font style=&quot;color: rgb(79, 79, 79);&quot;&gt;Azure Data Lake Gen2&lt;/font&gt;&lt;/b&gt;&lt;/span&gt;" style="text;strokeColor=default;align=center;fillColor=none;html=1;verticalAlign=middle;whiteSpace=wrap;rounded=1;glass=0;shadow=1;strokeWidth=2;" vertex="1" parent="1">
          <mxGeometry x="-597.5" y="762" width="121" height="37" as="geometry" />
        </mxCell>
        <mxCell id="-pcDP337HyHmy2B4VzE0-35" value="&lt;span style=&quot;font-size: 15px;&quot;&gt;&lt;b&gt;&lt;font style=&quot;color: rgb(79, 79, 79);&quot;&gt;Azure Databricks&lt;/font&gt;&lt;/b&gt;&lt;/span&gt;" style="text;strokeColor=default;align=center;fillColor=none;html=1;verticalAlign=middle;whiteSpace=wrap;rounded=1;glass=0;shadow=1;strokeWidth=2;" vertex="1" parent="1">
          <mxGeometry x="-300.5" y="762" width="121" height="37" as="geometry" />
        </mxCell>
        <mxCell id="-pcDP337HyHmy2B4VzE0-36" value="&lt;span style=&quot;font-size: 15px;&quot;&gt;&lt;b&gt;&lt;font style=&quot;color: rgb(79, 79, 79);&quot;&gt;Azure Data Lake Gen2&lt;/font&gt;&lt;/b&gt;&lt;/span&gt;" style="text;strokeColor=default;align=center;fillColor=none;html=1;verticalAlign=middle;whiteSpace=wrap;rounded=1;glass=0;shadow=1;strokeWidth=2;" vertex="1" parent="1">
          <mxGeometry x="-31.5" y="761.08" width="121" height="37" as="geometry" />
        </mxCell>
        <mxCell id="-pcDP337HyHmy2B4VzE0-37" value="&lt;font color=&quot;#4f4f4f&quot;&gt;&lt;span style=&quot;font-size: 15px;&quot;&gt;&lt;b&gt;Synapse&lt;/b&gt;&lt;/span&gt;&lt;/font&gt;" style="text;strokeColor=default;align=center;fillColor=none;html=1;verticalAlign=middle;whiteSpace=wrap;rounded=1;glass=0;shadow=1;strokeWidth=2;" vertex="1" parent="1">
          <mxGeometry x="-30.75" y="466.18" width="121" height="37" as="geometry" />
        </mxCell>
        <mxCell id="-pcDP337HyHmy2B4VzE0-38" value="&lt;font color=&quot;#4f4f4f&quot;&gt;&lt;span style=&quot;font-size: 15px;&quot;&gt;&lt;b&gt;Power BI&lt;/b&gt;&lt;/span&gt;&lt;/font&gt;" style="text;strokeColor=default;align=center;fillColor=none;html=1;verticalAlign=middle;whiteSpace=wrap;rounded=1;glass=0;shadow=1;strokeWidth=2;" vertex="1" parent="1">
          <mxGeometry x="274" y="445.63" width="121" height="37" as="geometry" />
        </mxCell>
        <mxCell id="-pcDP337HyHmy2B4VzE0-40" value="&lt;font color=&quot;#cc0000&quot;&gt;&lt;span style=&quot;font-size: 15px;&quot;&gt;&lt;b&gt;Raw Data&lt;/b&gt;&lt;/span&gt;&lt;/font&gt;" style="text;strokeColor=none;align=center;fillColor=none;html=1;verticalAlign=middle;whiteSpace=wrap;rounded=0;glass=0;shadow=1;strokeWidth=2;" vertex="1" parent="1">
          <mxGeometry x="-599.5" y="616" width="121" height="30" as="geometry" />
        </mxCell>
        <mxCell id="-pcDP337HyHmy2B4VzE0-41" value="&lt;font color=&quot;#cc0000&quot;&gt;&lt;span style=&quot;font-size: 15px;&quot;&gt;&lt;b&gt;Data Transformation&lt;/b&gt;&lt;/span&gt;&lt;/font&gt;" style="text;strokeColor=none;align=center;fillColor=none;html=1;verticalAlign=middle;whiteSpace=wrap;rounded=0;glass=0;shadow=1;strokeWidth=2;" vertex="1" parent="1">
          <mxGeometry x="-303.5" y="610" width="121" height="30" as="geometry" />
        </mxCell>
        <mxCell id="-pcDP337HyHmy2B4VzE0-42" value="&lt;font color=&quot;#cc0000&quot;&gt;&lt;span style=&quot;font-size: 15px;&quot;&gt;&lt;b&gt;Transformed Data&lt;/b&gt;&lt;/span&gt;&lt;/font&gt;" style="text;strokeColor=none;align=center;fillColor=none;html=1;verticalAlign=middle;whiteSpace=wrap;rounded=0;glass=0;shadow=1;strokeWidth=2;" vertex="1" parent="1">
          <mxGeometry x="-35.75" y="612" width="121" height="30" as="geometry" />
        </mxCell>
        <mxCell id="-pcDP337HyHmy2B4VzE0-43" value="&lt;font color=&quot;#cc0000&quot;&gt;&lt;span style=&quot;font-size: 15px;&quot;&gt;&lt;b&gt;Data Wherhouse&lt;/b&gt;&lt;/span&gt;&lt;/font&gt;" style="text;strokeColor=none;align=center;fillColor=none;html=1;verticalAlign=middle;whiteSpace=wrap;rounded=0;glass=0;shadow=1;strokeWidth=2;" vertex="1" parent="1">
          <mxGeometry x="-34.75" y="321.18" width="121" height="30" as="geometry" />
        </mxCell>
        <mxCell id="-pcDP337HyHmy2B4VzE0-44" value="" style="shape=image;verticalLabelPosition=bottom;labelBackgroundColor=default;verticalAlign=top;aspect=fixed;imageAspect=0;image=https://miro.medium.com/v2/resize:fit:600/1*xkem5OSBR4oeQbMptKm6sw.png;" vertex="1" parent="1">
          <mxGeometry x="-645.5" y="646" width="213" height="111.83" as="geometry" />
        </mxCell>
        <mxCell id="-pcDP337HyHmy2B4VzE0-45" value="" style="endArrow=classic;html=1;rounded=0;strokeWidth=3;shadow=1;exitX=0.777;exitY=0.483;exitDx=0;exitDy=0;exitPerimeter=0;" edge="1" parent="1">
          <mxGeometry width="50" height="50" relative="1" as="geometry">
            <mxPoint x="-481.9989999999998" y="700.01389" as="sourcePoint" />
            <mxPoint x="-312" y="700" as="targetPoint" />
          </mxGeometry>
        </mxCell>
        <mxCell id="-pcDP337HyHmy2B4VzE0-46" value="" style="endArrow=classic;html=1;rounded=0;strokeWidth=3;shadow=1;" edge="1" parent="1">
          <mxGeometry width="50" height="50" relative="1" as="geometry">
            <mxPoint x="-176" y="701" as="sourcePoint" />
            <mxPoint x="-18.5" y="701.41" as="targetPoint" />
          </mxGeometry>
        </mxCell>
        <mxCell id="-pcDP337HyHmy2B4VzE0-47" value="" style="endArrow=classic;html=1;rounded=0;strokeWidth=3;shadow=1;" edge="1" parent="1">
          <mxGeometry width="50" height="50" relative="1" as="geometry">
            <mxPoint x="31" y="590" as="sourcePoint" />
            <mxPoint x="31" y="520" as="targetPoint" />
          </mxGeometry>
        </mxCell>
        <mxCell id="-pcDP337HyHmy2B4VzE0-48" value="" style="endArrow=classic;html=1;rounded=0;strokeWidth=3;shadow=1;" edge="1" parent="1">
          <mxGeometry width="50" height="50" relative="1" as="geometry">
            <mxPoint x="100" y="399.5" as="sourcePoint" />
            <mxPoint x="257.5" y="399.90999999999997" as="targetPoint" />
          </mxGeometry>
        </mxCell>
        <mxCell id="-pcDP337HyHmy2B4VzE0-49" value="" style="shape=image;verticalLabelPosition=bottom;labelBackgroundColor=default;verticalAlign=top;aspect=fixed;imageAspect=0;image=https://static-00.iconduck.com/assets.00/database-mongo-db-icon-980x1024-1q3t2p6x.png;" vertex="1" parent="1">
          <mxGeometry x="-290" y="891" width="100" height="104.49" as="geometry" />
        </mxCell>
        <mxCell id="-pcDP337HyHmy2B4VzE0-50" value="" style="endArrow=classic;html=1;rounded=0;strokeWidth=3;shadow=1;" edge="1" parent="1">
          <mxGeometry width="50" height="50" relative="1" as="geometry">
            <mxPoint x="-240" y="879" as="sourcePoint" />
            <mxPoint x="-240" y="809" as="targetPoint" />
          </mxGeometry>
        </mxCell>
        <mxCell id="-pcDP337HyHmy2B4VzE0-51" value="&lt;font color=&quot;#4f4f4f&quot;&gt;&lt;span style=&quot;font-size: 15px;&quot;&gt;&lt;b&gt;MongoDB&lt;/b&gt;&lt;/span&gt;&lt;/font&gt;" style="text;strokeColor=default;align=center;fillColor=none;html=1;verticalAlign=middle;whiteSpace=wrap;rounded=1;glass=0;shadow=1;strokeWidth=2;" vertex="1" parent="1">
          <mxGeometry x="-300.5" y="1001" width="121" height="37" as="geometry" />
        </mxCell>
      </root>
    </mxGraphModel>
  </diagram>
</mxfile>
